<?xml version="1.0" encoding="iso-8859-1"?>
<!-- Generator: Adobe Illustrator 21.1.0, SVG Export Plug-In . SVG Version: 6.00 Build 0)  -->
<svg version="1.1" id="_x34_" xmlns="http://www.w3.org/2000/svg" xmlns:xlink="http://www.w3.org/1999/xlink" x="0px" y="0px"
	 viewBox="0 0 512 512" style="enable-background:new 0 0 512 512;" xml:space="preserve">
<g>
	<g>
		<path style="fill:#231815;" d="M215.786,438.642c-2.53-1.586-5.113-2.229-7.291-2.26c-1.106-0.036-2.122,0.074-3.033,0.278
			c-0.925,0.188-1.749,0.465-2.462,0.795c-1.452,0.632-2.48,1.437-3.151,2.059c-0.679,0.616-0.981,1.076-0.981,1.076
			s-0.817,0.816-2.175,2.17c-1.335,1.369-3.196,3.259-5.22,5.473c-4.109,4.383-8.83,10.005-12.85,14.264
			c-4.073,4.212-8.646,10.876-11.243,18.077c-1.309,3.584-2.093,7.285-2.241,10.623c-0.16,3.339,0.248,6.26,0.758,8.35
			c0.233,1.05,0.672,2.004,1.04,2.879c0.439,0.85,0.961,1.577,1.419,2.196c0.995,1.204,2,1.852,2.584,1.991
			c0.604,0.131,0.881-0.284,0.681-1.277c-0.208-0.989-0.936-2.535-1.749-5.07c-0.85-2.514-1.502-6.12-1.184-10.216
			c0.255-4.093,1.525-8.566,3.283-12.664c1.752-4.111,3.987-7.855,6.076-10.779c1.021-1.481,2.07-2.713,2.939-3.754
			c0.916-1.003,1.696-1.782,2.299-2.274c2.459-1.93,5.491-4.743,8.665-7.387c3.158-2.656,6.445-5.136,9.037-6.688
			c2.578-1.574,6.21-3.819,9.286-5.376c1.533-0.794,2.917-1.415,3.91-1.84C215.177,438.887,215.786,438.642,215.786,438.642z"/>
		<path style="fill:#231815;" d="M183.52,420.509c-1.752,0.273-3.421-0.519-4.526-1.516c-1.121-1.018-1.835-2.222-2.219-3.398
			c-0.805-2.374-0.52-4.506-0.591-6.661c-0.035-1.081-0.148-3.794,0.571-7.282c0.374-1.73,0.966-3.643,1.917-5.505
			c0.936-1.867,2.286-3.65,4.03-4.982c0.854-0.697,1.846-1.187,2.86-1.62c1.097-0.297,2.163-0.731,3.303-0.828
			c2.236-0.411,4.517-0.249,6.612,0.008c4.206,0.637,7.715,1.938,9.821,2.922c1.043,0.488,2.896,1.353,5.22,2.438
			c2.353,1.071,5.207,2.359,8.398,3.498c0.812,0.266,1.634,0.535,2.459,0.805l2.582,0.666c0.887,0.177,1.791,0.319,2.683,0.47
			c0.894,0.113,1.787,0.139,2.667,0.202c0.892,0.08,1.727,0.052,2.54,0.019c0.815-0.03,1.618-0.05,2.38-0.097
			c1.49-0.169,2.888-0.312,4.097-0.509c0.598-0.113,1.673-0.347,3.103-0.676c1.421-0.344,3.161-0.852,5.127-1.435
			c3.906-1.214,8.596-2.957,13.165-4.869c9.151-3.8,17.745-8.444,19.53-9.341c4.926-2.426,8.655-4.676,9.636-5.24
			c0.842-0.479,2.161-1.266,3.763-2.081c0.801-0.408,1.67-0.824,2.579-1.224c0.408-0.166,0.824-0.337,1.244-0.509
			c0.284-0.108,0.572-0.217,0.868-0.307c1.16-0.357,2.5-0.645,3.478-0.13c0.478,0.267,0.713,0.791,0.711,1.262
			c0,0.473-0.113,0.892-0.269,1.215c-0.3,0.656-0.692,1.33-1.04,1.95c-0.26,0.471-1.078,2.022-1.589,3.152
			c-1.073,2.334-1.373,4.188,1.006,3.742c1.191-0.231,2.327-1.007,3.35-2.137c0.254-0.284,0.502-0.589,0.746-0.91
			c0.244-0.336,0.485-0.717,0.719-1.098c0.23-0.357,0.467-0.845,0.697-1.318c0.242-0.471,0.444-0.96,0.615-1.455
			c0.716-1.981,1.022-3.982,0.603-5.62c-0.192-0.823-0.592-1.564-1.143-2.081c-0.549-0.531-1.204-0.757-1.724-0.945
			c-0.532-0.165-1.606-0.344-3.135-0.145c-1.51,0.18-3.529,0.786-5.592,1.695c-1.957,0.856-4.11,1.964-6.456,3.319
			c-2.351,1.356-4.824,2.958-7.645,4.431c-1.003,0.547-3.834,1.809-7.598,3.314c-3.775,1.484-8.496,3.183-13.245,4.674
			c-4.743,1.512-9.523,2.77-13.339,3.616c-1.905,0.452-3.575,0.757-4.883,1.009c-1.306,0.279-2.254,0.407-2.727,0.516
			c-0.842,0.168-1.961,0.509-3.266,0.735c-0.654,0.134-1.357,0.278-2.1,0.429c-0.74,0.137-1.508,0.216-2.313,0.341
			c-0.401,0.052-0.817,0.132-1.225,0.165c-0.406,0.022-0.817,0.044-1.233,0.067c-0.419,0.025-0.842,0.051-1.268,0.076
			c-0.428,0.021-0.854-0.028-1.288-0.036c-0.433-0.021-0.868-0.026-1.309-0.056l-1.338-0.159c-0.893-0.08-1.797-0.257-2.692-0.416
			c-3.585-0.667-7.05-1.649-9.688-2.341c-2.635-0.712-4.46-1.148-4.728-1.182c-0.867-0.073-3.222-0.874-6.49-1.734
			c-3.249-0.842-7.542-1.717-12.031-1.126c-0.563,0.029-1.109,0.185-1.661,0.314c-0.551,0.137-1.1,0.272-1.648,0.408
			c-0.541,0.211-1.092,0.406-1.618,0.639c-0.505,0.273-1.026,0.52-1.503,0.82c-1.92,1.201-3.44,2.766-4.549,4.305
			c-2.199,3.121-3.028,5.976-3.181,7.206c-0.175,1.238-0.828,2.96-1.518,5.098c-0.696,2.132-1.416,4.689-1.768,7.431
			c-0.36,2.732-0.333,5.661,0.283,8.282c0.584,2.615,1.838,4.88,3.102,6.039c0.317,0.291,0.629,0.568,0.953,0.823
			c0.348,0.245,0.696,0.473,1.04,0.684c0.665,0.437,1.429,0.729,2.118,0.981c1.419,0.468,2.776,0.579,3.912,0.417
			c0.562-0.052,1.074-0.195,1.529-0.382c0.453-0.177,0.843-0.381,1.172-0.597c0.661-0.474,1.085-1.023,1.307-1.525
			c0.464-1.014,0.831-2.921,0.892-4.419c0.045-1.495,0.008-2.589-0.565-1.913c-0.292,0.301-0.636,0.446-0.983,0.501
			c-0.316-0.011-0.669-0.017-0.911-0.19C183.777,420.963,183.527,420.484,183.52,420.509z"/>
		<path style="fill:#231815;" d="M292.446,384.205c0.789-0.133,1.609-0.219,2.454-0.29c0.42-0.024,0.848-0.048,1.284-0.072
			c0.241-0.005,0.486-0.01,0.731-0.014c0.378-0.015,0.759,0.004,1.136,0.021c3.105,0.097,5.844,0.638,9.134,1.08
			c-1.119,1.198-2.251,2.408-3.386,3.621c-0.581,0.61-1.158,1.225-1.827,1.842c-0.637,0.609-1.31,1.256-1.98,1.818
			c-1.429,1.248-2.9,2.376-4.348,3.35c-2.834,1.888-5.014,2.838-6.393,3.307c-1.377,0.464-1.972,0.393-1.575,0.083
			c0.773-0.618,1.385-3.199,5.387-6.215c0.967-0.741,1.865-1.467,2.672-2.182c0.409-0.354,0.786-0.712,1.154-1.055l0.266-0.259
			l0.196-0.202l0.12-0.177c0.282-0.453,0.116-0.611-0.31-0.494l-0.074,0.02c-0.496,0.17-0.174,0.095-0.052-0.065
			c0.068-0.078,0.095-0.176-0.033-0.253l-0.123-0.053c-0.05-0.007,0-0.014-0.143-0.018c-0.137-0.003-0.28-0.007-0.429-0.01
			c-0.591,0.013-1.278,0.044-2.052,0.176c-3.076,0.509-4.783,1.15-5.887,1.199c-1.074,0.079-1.403-0.468-0.666-1.286
			c0.73-0.784,1.814-1.844,2.845-2.601C291.561,384.704,292.446,384.205,292.446,384.205z"/>
		<path style="fill:#231815;" d="M285.874,397.631c1.692,0.168,3.606,0.407,5.617,1.006c0.999,0.317,2.027,0.698,3.01,1.238
			c0.28,0.143,0.762,0.402,1.094,0.669l1.11,0.793c0.376,0.261,0.732,0.558,1.103,0.839l0.555,0.43l0.279,0.215
			c-0.018,0.093-0.101,0.197-0.149,0.294c-0.459,0.777-0.885,1.63-1.386,2.372c-0.47,0.717-1.071,1.682-1.316,1.965
			c-0.639,0.872-1.336,1.704-2.082,2.474c-1.481,1.55-3.141,2.878-4.859,3.902c-3.464,2.038-6.317,2.459-7.946,2.495
			c-1.657,0-2.188-0.318-1.655-0.457c0.539-0.145,1.243-0.766,2.358-1.634c1.121-0.87,2.635-1.973,4.83-3.38
			c2.19-1.434,3.885-3.114,5.06-4.709c0.298-0.396,0.571-0.782,0.802-1.167c0.113-0.184,0.223-0.363,0.33-0.536l0.043-0.188
			c0.027-0.123,0.012-0.196-0.035-0.222c-0.04-0.036-0.091-0.05-0.185-0.039c-0.154,0.02-0.156,0.053-0.145,0.037l0.034-0.051
			l-0.01-0.058l-0.226-0.191c-0.676-0.478-1.816-1.468-5.356-1.805c-3.551-0.211-5.894-0.372-6.991-0.887
			c-1.105-0.473-0.996-1.122,0.091-1.444c1.085-0.319,2.539-0.86,3.776-1.268C284.858,397.911,285.874,397.631,285.874,397.631z"/>
		<path style="fill:#231815;" d="M199.706,426.623c6.914,1.398,15.664,1.106,24.593-0.245c8.953-1.334,18.135-3.629,26.603-5.486
			c8.466-1.879,14.585-2.772,18.259-2.99c3.675-0.228,4.888,0.122,3.621,0.449c-2.565,0.634-6.905,4.491-19.606,7.856
			c-6.362,1.656-12.104,3.171-17.045,4.386c-4.937,1.226-9.068,2.171-12.142,2.861c-3.081,0.686-4.006,0.605-6.488,0.553
			c-1.241-0.03-2.875-0.068-5.384-0.128c-2.506-0.074-5.89-0.113-10.634-0.629c-4.745-0.526-8.464-1.604-11.198-2.729
			c-1.364-0.582-2.497-1.135-3.397-1.708c-0.454-0.275-0.857-0.535-1.209-0.78c-0.346-0.265-0.642-0.514-0.893-0.742
			c-2-1.829-1.122-2.483,1.339-1.752c2.497,0.705,5.929,1.146,8.696,1.212c1.394,0.007,2.604,0.021,3.485-0.048
			C199.177,426.653,199.706,426.623,199.706,426.623z"/>
		<path style="fill:#231815;" d="M189.171,234.665c3.041,2.603,5.168,5.79,6.173,9.2c1.035,3.4,0.808,6.969-0.023,9.73
			c-0.822,2.782-2.042,4.806-2.951,6.081c-0.456,0.649-0.838,1.141-1.114,1.451c-0.28,0.312-0.429,0.478-0.429,0.478
			s-1.179,1.523-3.138,4.055c-0.965,1.25-2.1,2.738-3.313,4.449c-0.291,0.414-0.638,0.882-1.006,1.371
			c-0.37,0.476-0.71,0.991-1.124,1.46c-0.41,0.47-0.828,0.95-1.254,1.439c-0.437,0.474-0.914,0.924-1.379,1.397
			c-3.806,3.712-8.727,6.835-13.688,9.578c-4.975,2.76-9.908,5.342-14.047,8.073c-4.23,2.729-9.588,5.325-15.486,7.377
			c-5.896,2.059-12.311,3.625-18.61,4.573c-6.298,0.973-12.463,1.413-17.902,1.518c-0.68,0.013-1.349,0.027-2.005,0.04
			c-0.699-0.005-1.384-0.009-2.055-0.014c-0.969,0.001-1.904-0.011-2.805-0.038c-0.877-0.04-1.592-0.168-2.364-0.243
			c-0.752-0.086-1.484-0.17-2.195-0.252c-0.333-0.054-0.753-0.049-1-0.151c0.126-0.343,0.249-0.68,0.37-1.012
			c0.501-1.306,0.927-2.421,1.484-3.474c0.284-0.526,0.569-1.046,0.944-1.55c0.177-0.251,0.344-0.505,0.53-0.749
			c0.204-0.237,0.406-0.472,0.607-0.706c0.204-0.231,0.393-0.467,0.607-0.683l0.555-0.536c0.306-0.301,0.632-0.557,0.944-0.82
			c1.265-1.025,2.521-1.797,3.654-2.396c2.277-1.185,4.072-1.708,4.956-1.717c0.887-0.004,0.861,0.53-0.404,1.7
			c-0.632,0.586-1.564,1.338-2.786,2.313c-0.613,0.486-1.282,1.041-2.014,1.665c-0.352,0.322-0.743,0.645-1.114,1.013
			c-0.188,0.181-0.38,0.367-0.577,0.557c-0.155,0.161-0.313,0.325-0.474,0.493c-0.427,0.465-0.861,1.003-1.239,1.656
			c-0.192,0.324-0.365,0.68-0.509,1.063c-0.195,0.272,0.131,0.193,0.306,0.219c0.199,0.011,0.401,0.023,0.605,0.033
			c0.42,0.022,0.849,0.045,1.287,0.068c0.563,0.014,1.139,0.03,1.723,0.045c1.719,0.032,3.497-0.003,5.32-0.025
			c3.646-0.095,7.465-0.318,11.326-0.708c3.854-0.432,7.757-0.965,11.543-1.75c7.578-1.521,14.713-3.836,20.309-6.443
			c2.807-1.302,5.197-2.659,7.209-3.87c2.015-1.231,3.643-2.222,4.739-2.995c4.363-3.098,10.656-6.662,15.815-11.223
			c2.559-2.288,4.77-4.849,6.323-7.5c1.696-2.931,3.272-5.656,4.61-7.967c1.31-2.311,2.95-5.006,4.153-7.775
			c1.223-2.769,1.929-5.636,2.04-8.378c0.134-2.737-0.264-5.3-0.527-7.135C189.4,235.798,189.171,234.665,189.171,234.665z"/>
		<path style="fill:#231815;" d="M93.252,295.201c-1.932-0.347-4.013-0.794-6.171-1.408c-0.536-0.164-1.087-0.308-1.631-0.492
			c-0.371-0.123-0.744-0.247-1.119-0.372c-0.496-0.178-0.971-0.379-1.464-0.57c-0.998-0.376-1.94-0.796-2.893-1.223
			c-0.979-0.436-1.964-0.875-2.953-1.316c1.591-1.223,3.181-2.47,4.846-3.717l2.186-1.614l1.31-0.933
			c1.753-1.224,3.529-2.361,5.289-3.343c3.67-2.047,6.53-2.971,8.276-3.33c1.754-0.351,2.397-0.181,1.842,0.088
			c-1.124,0.568-2.581,3.08-7.752,6.257c-2.343,1.461-4.386,2.934-6.075,4.286c-1.112,0.867-0.937,0.843-1.05,1.031
			c-0.048,0.141,0.01,0.217,0.148,0.235c0.102,0.014,0.208,0.006,0.282-0.005c0.375-0.08,0.102-0.074,0.108,0.1l0.015,0.07
			c0.073,0.047,0.281,0.14,0.438,0.217c0.343,0.17,0.764,0.326,1.274,0.526c1.024,0.366,2.438,0.82,4.453,1.147
			c4.027,0.641,6.314,0.783,7.52,1.069c1.205,0.257,1.334,0.888,0.094,1.454c-1.217,0.518-2.942,1.051-4.388,1.36
			C94.394,295.038,93.252,295.201,93.252,295.201z"/>
		<path style="fill:#231815;" d="M95.564,266.369c2.645-0.086,5.418-0.367,8.288-0.757c2.863-0.441,5.827-0.974,8.828-1.739
			c6.012-1.481,12.198-3.656,18.292-6.348c3.044-1.357,6.067-2.833,9.054-4.4c3.021-1.602,6.047-3.206,9.049-4.799
			c6.038-3.166,12.135-6.224,18.271-8.465c6.114-2.288,11.56-3.513,16.054-4.265c0.564-0.091,1.109-0.198,1.645-0.263
			c0.268-0.035,0.533-0.071,0.793-0.105c0.351-0.051,0.699-0.1,1.04-0.15c0.836-0.134,1.61-0.231,2.338-0.311l0.272-0.032
			c0.09-0.01,0.199-0.053,0.202,0.083l0.171,0.548c0.108,0.355,0.214,0.704,0.319,1.049c0.095,0.343,0.187,0.68,0.279,1.011
			l0.122,0.491l0.093,0.416c0.077,0.421,0.153,0.827,0.224,1.22c0.135,0.783,0.23,1.512,0.31,2.183
			c0.308,2.684,0.212,4.487,0.031,5.346c-0.214,0.865-0.293,0.746-0.275-0.226c-0.01-0.978-0.242-2.173-0.669-3.674
			c-0.211-0.752-0.472-1.582-0.789-2.501c-0.303-0.874-0.725-2.07-1.053-2.749c-0.089-0.182-0.179-0.368-0.273-0.56l-0.096-0.091
			l-0.176,0.053l-0.347,0.104c-0.497,0.146-0.757,0.246-1.565,0.448c-1.394,0.364-2.906,0.802-4.558,1.266
			c-3.301,0.947-7.122,2.163-11.545,3.806c-8.831,3.348-16.309,7.591-22.742,11.117c-3.205,1.779-6.139,3.429-8.831,4.85
			c-2.685,1.415-5.086,2.6-7.146,3.568c-4.134,1.917-5.409,2.268-8.849,3.258c-0.86,0.25-1.858,0.532-3.085,0.846
			c-1.219,0.339-2.672,0.689-4.43,1.118c-3.524,0.799-8.296,1.888-15.103,2.57c-1.698,0.198-3.322,0.257-4.858,0.352
			c-0.304,0-0.601,0-0.89,0c-0.149-0.002-0.297-0.004-0.441-0.005l-0.034,0.235c-0.006,0.167-0.003,0.33,0.036,0.514l0.073,0.279
			c0.036,0.117,0.05,0.244,0.1,0.353c0.094,0.223,0.187,0.442,0.278,0.658c0.428,0.829,0.951,1.566,1.596,2.142
			c1.26,1.184,2.752,1.831,4.016,2.271c1.281,0.447,2.398,0.612,3.268,0.77c0.436,0.053,0.816,0.117,1.136,0.173
			c0.319,0.035,0.579,0.079,0.781,0.128c0.404,0.098,0.572,0.22,0.502,0.357c-0.136,0.253-1.236,0.714-3.236,0.75
			c-0.997,0.035-2.082-0.074-3.216-0.254c-1.12-0.242-2.307-0.542-3.429-1.114c-1.109-0.569-2.228-1.275-3.102-2.256
			c-0.875-0.961-1.616-2.071-2.019-3.259c-0.53-1.612-0.609-3.279-0.736-4.858l-0.023-0.295l-0.004-0.072l0.059-0.007l0.119-0.014
			c0.16-0.02,0.318-0.039,0.472-0.057c0.315-0.039,0.62-0.076,0.915-0.112c0.608-0.074,1.172-0.143,1.685-0.206
			C95.141,266.481,95.474,266.373,95.564,266.369z"/>
		<path style="fill:#231815;" d="M358.766,216.217c3.791-0.452,7.917-1.323,12.043-2.835c4.134-1.488,8.228-3.689,11.93-6.551
			l1.388-1.079c0.452-0.374,0.881-0.78,1.325-1.167l0.66-0.588l0.331-0.294l0.165-0.146l0.047-0.056
			c0.176-0.186,0.502-0.67,0.771-1.128c1.133-1.937,2.183-4.212,3.23-6.407c2.092-4.437,4.163-8.883,6.534-12.997
			c1.192-2.057,2.401-3.929,3.743-5.588c0.675-0.827,1.382-1.603,2.196-2.303c0.421-0.346,0.846-0.679,1.355-0.969
			c0.478-0.289,1.074-0.547,1.767-0.69c1.401-0.305,2.767,0.25,3.614,1.086c0.781,0.772,1.131,1.529,1.432,2.213
			c0.572,1.376,0.781,2.539,0.94,3.528c0.29,1.976,0.263,3.251,0.212,3.87c-0.056,0.617-0.172,0.576-0.296-0.11
			c-0.124-0.685-0.386-1.527-0.812-2.583c-0.434-1.039-0.981-2.36-1.908-3.72c-0.448-0.646-1.096-1.372-1.686-1.514
			c-0.656-0.179-1.214,0.13-2.039,0.873c-1.556,1.51-3.069,4.011-4.737,6.947c-3.315,5.967-5.668,11.749-7.918,16.632
			c-0.565,1.227-1.118,2.402-1.728,3.542c-0.307,0.571-0.625,1.13-1.037,1.715c-0.1,0.145-0.23,0.302-0.344,0.451
			c-0.128,0.148-0.321,0.358-0.421,0.452c-0.21,0.199-0.417,0.397-0.621,0.592c-1.6,1.595-3.14,2.866-4.439,3.968
			c-2.701,2.076-3.624,2.476-6.043,3.589c-0.613,0.26-1.322,0.563-2.188,0.931c-0.876,0.333-1.911,0.725-3.164,1.2
			c-2.533,0.846-5.968,1.943-10.873,2.855c-4.907,0.905-8.868,1.046-11.9,1.02c-3.038-0.034-5.167-0.29-6.505-0.564
			c-2.676-0.552-2.202-1.192,0.559-1.434c2.76-0.262,6.424-0.8,9.333-1.455c1.46-0.301,2.728-0.652,3.639-0.868
			C358.221,216.376,358.766,216.217,358.766,216.217z"/>
		<path style="fill:#231815;" d="M407.618,186.792c0.803-2.124,1.96-4.459,3.725-6.584c0.45-0.52,0.908-1.052,1.437-1.528
			c0.552-0.512,0.894-0.849,2.087-1.644c1.014-0.558,2.059-1.181,3.07-1.492c1.046-0.385,2.088-0.767,3.122-1.147
			c0.109,1.597,0.214,3.144,0.317,4.65c0.047,0.693,0.094,1.376,0.14,2.051l0.021,0.387l0.009,0.274l0.01,0.545
			c0.054,3.114-0.539,5.441-1.184,6.695c-0.653,1.266-1.181,1.511-1.081,1.067c0.091-0.455-0.206-1.21-0.56-2.331
			c-0.355-1.129-0.779-2.618-0.951-4.835c-0.039-0.425-0.077-0.841-0.114-1.246c-0.029-0.229-0.058-0.433-0.084-0.555
			c-0.054-0.283-0.117-0.506-0.177-0.644l-0.019-0.048l-0.07,0.035l-0.147,0.095c-0.094,0.061-0.178,0.122-0.25,0.19
			c-0.146,0.127-0.25,0.25-0.316,0.363l-0.073,0.154l-0.007,0.063l0.001,0.03l-0.086,0.092c-0.236,0.228-0.403,0.501-0.567,0.717
			c-0.273,0.355-0.428,0.602-0.631,0.767c-0.202,0.166-0.406,0.303-0.689,0.528c-0.544,0.44-1.598,1.216-2.636,3.827
			c-0.917,2.612-1.365,4.265-1.902,5.123c-0.544,0.856-1.18,0.827-1.435-0.126c-0.278-0.934-0.579-2.251-0.767-3.402
			c-0.066-0.581-0.124-1.096-0.166-1.465C407.628,187.02,407.618,186.792,407.618,186.792z"/>
		<path style="fill:#231815;" d="M420.289,189.584c0.767-1.004,1.668-1.966,2.658-2.894c0.491-0.471,1.026-0.905,1.566-1.35
			c0.28-0.209,0.562-0.42,0.846-0.633c0.141-0.108,0.285-0.211,0.436-0.308l0.723-0.481c0.526-0.339,1.052-0.619,1.586-0.904
			c0.526-0.218,1.102-0.879,1.538-0.171c0.468,0.404,0.95,0.799,1.386,1.247c0.435,0.435,0.944,0.862,1.271,1.383
			c1.029,1.384,1.692,2.974,2.09,4.549c0.78,3.172,0.675,6.303,0.312,9.245c-0.387,2.946-1.078,5.738-1.919,8.309
			c-1.71,5.137-3.606,8.396-4.825,10.258c-1.241,1.851-1.883,2.296-1.589,1.566c0.292-0.733,0.345-1.99,0.646-3.975
			c0.293-1.989,0.864-4.688,1.959-8.398c1.087-3.713,1.68-7.147,1.753-10.013c0.039-1.432-0.05-2.717-0.23-3.814
			c-0.185-1.097-0.486-1.985-0.784-2.682c-0.324-0.68-0.532-1.073-0.694-1.448c-0.091-0.177-0.165-0.355-0.24-0.554
			c-0.091-0.175-0.236-0.439-0.178-0.432l-0.017-0.201l-0.073-0.119l-0.142,0.014l-0.085,0.026l-0.053,0.021l-0.248,0.149
			c-0.318,0.228-0.681,0.457-1.041,0.744c-0.736,0.56-1.527,1.286-2.34,2.223c-3.177,3.813-3.944,6.788-4.693,8.141
			c-0.668,1.392-1.307,1.207-1.389-0.469c-0.053-1.646,0.141-3.931,0.641-5.786C419.64,190.971,420.289,189.584,420.289,189.584z"/>
		<path style="fill:#231815;" d="M331.142,271.389c0.78-3.615,2.274-6.376,3.937-8.314c1.663-1.972,3.48-3.164,5.09-3.888
			c3.241-1.452,5.69-1.042,5.69-1.042s1.282-0.088,3.411-0.233c2.115-0.17,5.052-0.419,8.333-0.918
			c3.282-0.497,6.926-1.254,10.398-2.467c3.455-1.206,6.761-2.905,9.464-4.756c5.418-3.662,12.794-8.304,19.547-13.012
			c6.761-4.688,12.88-9.423,16.233-12.393c3.377-2.927,6.805-4.734,8.348-4.633c0.766,0.053,1.041,0.588,0.521,1.697
			c-0.261,0.555-0.719,1.254-1.414,2.104c-0.715,0.826-1.654,1.82-2.893,2.933c-2.474,2.231-5.988,5.016-10.01,7.892
			c-4.022,2.877-8.563,5.832-13.023,8.529c-4.459,2.704-8.837,5.146-12.473,7.162c-3.63,2.024-6.532,3.6-7.972,4.724
			c-2.872,2.277-7.416,4.515-12.044,6.163c-4.633,1.678-9.322,2.973-12.662,4.174c-3.35,1.2-8.141,2.547-11.904,3.83
			c-1.893,0.63-3.537,1.241-4.706,1.698C331.852,271.105,331.142,271.389,331.142,271.389z"/>
		<path style="fill:#231815;" d="M262.46,164.171c-1.526,0.532-3.148,1.268-4.674,2.156c-1.506,0.883-2.897,1.907-3.994,3.064
			c-1.063,1.122-1.834,2.419-2.032,3.666c-0.213,1.26,0.135,2.518,1.111,3.434c1.939,1.902,5.317,4.055,8.546,5.349
			c3.245,1.362,6.389,2.169,8.278,2.598c1.91,0.464,6.99,0.758,12.348,0.579c2.665-0.075,5.523-0.229,8.018-0.371
			c2.47-0.126,4.782-0.146,6.663-0.018c1.859,0.15,4.127,0.061,6.571-0.196c2.471-0.301,5.168-0.83,7.822-1.718
			c2.66-0.855,5.198-2.205,7.247-3.548c2.097-1.325,3.69-2.665,5.053-3.493c1.872-1.204,2.688-2.618,2.756-3.794
			c0.098-1.183-0.455-2.146-1.284-2.718c-0.827-0.572-1.919-0.768-2.908-0.412c-0.98,0.379-1.895,1.24-2.594,2.956
			c-0.616,1.396-1.94,3.15-3.946,4.596c-1.995,1.451-4.62,2.499-7.185,2.976c-2.57,0.486-5.056,0.557-7.042,0.428
			c-1.99-0.118-3.501-0.369-4.19-0.641c-0.69-0.263-2.553-0.495-4.992-0.749c-2.452-0.257-5.444-0.492-8.384-0.929
			c-2.943-0.417-5.829-0.989-8.054-1.604c-2.231-0.605-3.79-1.256-4.196-1.653c-0.806-0.807-2.969-1.479-4.981-2.538
			c-2.025-1.022-3.804-2.515-3.899-4.02c-0.151-1.499-0.161-2.412-0.094-2.842C262.494,164.294,262.482,164.18,262.46,164.171z"/>
		<path style="fill:#231815;" d="M333.797,174.636c-9.413,5.094-11.488,9.773-7.276,22.512c1.894,5.795,2.86,12.094,2.781,17.797
			c-0.055,5.626-1.159,10.901-1.853,14.775c-0.699,3.898-1.616,10.022-2.937,16.33c-1.276,6.302-2.835,12.793-4.005,17.296
			c-0.573,2.249-1.415,5.56-2.38,9.356c-0.5,1.855-0.956,3.847-1.554,5.858c-0.587,2.015-1.186,4.077-1.78,6.116
			c-2.487,8.134-5.352,15.777-6.499,18.611c-1.114,2.847-3.57,9.01-6.319,15.342c-2.778,6.319-5.854,12.8-7.775,16.422
			c-0.96,1.811-1.79,3.473-2.625,5.116c-0.858,1.631-1.709,3.248-2.67,4.986c-1.943,3.465-4.363,7.409-8.326,12.796
			c-7.908,10.772-13.18,18.274-12.228,20.174c0.884,1.872,8.022-2.072,12.542-11.509c2.258-4.695,6.53-11.772,10.6-18.83
			c4.068-7.056,7.865-14.127,9.67-18.425c1.805-4.296,7.545-16.157,12.456-28.655c2.429-6.255,4.76-12.621,6.482-18.168
			c0.438-1.384,0.858-2.71,1.255-3.964c0.359-1.265,0.696-2.456,1.008-3.557c0.627-2.203,1.144-4.052,1.495-5.437
			c1.418-5.528,4.471-14.88,6.795-23.791c1.161-4.455,2.138-8.803,2.762-12.449c0.62-3.646,0.973-6.57,1.047-8.137
			c0.096-1.567,0.271-3.843,0.365-6.49c0.123-2.655,0.029-5.655-0.138-8.613c-0.372-5.92-1.201-11.609-1.653-14.155
			c-0.968-5.101-0.294-11.451,0.519-15.459c0.401-2.01,0.452-3.456,0.434-4.412C333.958,175.115,333.797,174.636,333.797,174.636z"
			/>
		<path style="fill:#231815;" d="M236.735,172.744c-6.902,4.525-14.082,11.837-20.508,20.137
			c-6.46,8.302-12.228,17.603-16.973,26.285c-4.74,8.692-7.571,15.021-9.155,18.802c-0.801,1.89-1.289,3.144-1.596,3.732
			c-0.305,0.588-0.395,0.51-0.227-0.222c0.324-1.464,0.434-3.761,1.258-7.498c0.846-3.716,2.415-8.88,5.872-15.668
			c6.956-13.541,13.89-23.592,18.053-29.414c1.03-1.466,1.766-2.355,2.465-3.146c0.694-0.794,1.37-1.477,2.379-2.463
			c0.99-1.001,2.322-2.294,4.368-4.274c2.079-1.947,4.859-4.604,9.143-7.917c4.297-3.3,8.206-5.361,11.392-6.509
			c3.192-1.151,5.604-1.478,7.117-1.459c3.033,0.075,2.498,0.81-0.334,1.505c-2.85,0.822-6.337,2.696-8.896,4.575
			c-0.657,0.439-1.246,0.901-1.769,1.332c-0.525,0.423-0.993,0.8-1.384,1.115C237.189,172.334,236.735,172.744,236.735,172.744z"/>
		<path style="fill:#231815;" d="M163.745,305.28c-0.821,5.831-1.076,12.41-1.024,19.371c0.045,6.971,0.453,14.318,0.787,21.878
			c0.077,1.893,0.152,3.798,0.172,5.739c0.031,1.882,0.063,3.769,0.094,5.657c0.129,3.758,0.292,7.517,0.606,11.229
			c0.607,7.428,1.593,14.697,3.018,21.53c2.846,13.669,6.13,22.996,7.856,28.567c1.815,5.549,2.177,7.343,1.32,5.395
			c-0.422-0.976-1.047-2.153-1.879-3.679c-0.782-1.546-1.834-3.417-2.963-5.84c-1.153-2.414-2.465-5.35-3.802-8.999
			c-1.367-3.637-2.728-8.001-3.935-13.234c-2.422-10.469-3.525-20.102-4.115-28.299c-0.305-4.102-0.453-7.853-0.574-11.201
			c-0.105-3.283-0.325-6.168-0.521-8.642c-0.406-4.945-0.368-6.375-0.342-10.291c0.01-1.961,0.026-4.546,0.048-8.513
			c0.053-3.972,0.042-9.333,0.617-16.867c0.607-7.53,1.941-13.553,3.763-17.976c1.747-4.454,4.064-7.173,5.698-8.536
			c0.8-0.716,1.506-1.053,1.929-1.246c0.433-0.183,0.637-0.176,0.64-0.008c0.025,0.361-0.844,1.22-2.091,2.848
			c-1.222,1.657-2.281,3.84-3.044,6.167c-0.77,2.327-1.275,4.785-1.606,7.005C163.785,301.798,163.745,305.28,163.745,305.28z"/>
		<path style="fill:#231815;" d="M258.136,171.236c0.601-0.776,1.182-1.525,1.744-2.249c0.503-0.737,0.941-1.455,1.375-2.107
			c0.45-0.641,0.803-1.293,1.144-1.907c0.344-0.591,0.678-1.162,1.001-1.717c1.18-2.217,2.199-3.964,3.169-5.529
			c1.936-3.103,3.857-5.393,5.247-8.191c0.719-1.388,2.213-4.889,4.225-9.341c0.997-2.159,2.275-4.826,3.363-7.632
			c1.077-2.828,2.066-5.854,2.975-8.927c1.805-6.153,3.402-12.458,5.385-17.746c1.977-5.279,4.312-9.51,6.2-11.82
			c1.992-2.511,5.086-6.403,9.383-10.239c4.237-3.89,9.634-7.732,15.049-11.322c2.733-1.799,5.414-3.564,7.933-5.221
			c0.634-0.42,1.257-0.832,1.869-1.237c0.573-0.353,1.064-0.674,1.606-0.979c1.078-0.595,2.153-1.117,3.2-1.555
			c2.088-0.885,4.018-1.478,5.553-1.883c0.763-0.216,1.435-0.373,1.989-0.495c0.553-0.129,0.984-0.233,1.286-0.286
			c1.197-0.256,3.202-0.554,5.62-0.668c2.415-0.114,5.245-0.014,7.967,0.425c2.71,0.435,5.34,1.197,7.17,2.217
			c1.871,0.996,2.867,2.111,3.197,2.799c0.364,0.713,0.516,1.324,0.589,1.95c-0.012,0.349,0.09,0.64,0.068,1.027
			c-0.001,0.185,0.061,0.341,0.053,0.537c-0.005,0.195,0.006,0.382,0.032,0.562c0.082,0.349,0.087,0.728,0.202,1.035
			c0.109,0.31,0.283,0.572,0.533,0.756c0.502,0.36,1.286,0.448,2.574-0.239c1.305-0.691,2.243-1.954,2.698-3.641
			c0.428-1.675,0.093-3.769-0.96-5.53c-1.04-1.777-2.681-3.128-4.294-4.045c-1.619-0.952-3.249-1.436-4.57-1.852
			c-1.313-0.416-6.303-1.709-13.097-1.435c-3.39,0.103-7.207,0.594-11.159,1.537c-3.94,0.976-8.039,2.412-11.793,4.686l-1.378,0.885
			l-1.283,0.874c-0.854,0.583-1.706,1.163-2.551,1.74c-1.69,1.162-3.356,2.309-4.975,3.421c-3.232,2.25-6.237,4.456-8.792,6.515
			c-5.12,4.128-8.314,7.715-8.877,8.692c-0.575,0.972-3.325,3.871-6.414,8.395c-1.504,2.282-3.13,4.938-4.577,7.9
			c-1.461,2.955-2.811,6.173-4.028,9.436c-2.429,6.535-4.461,13.17-6.527,18.26c-0.995,2.565-1.999,4.742-2.781,6.476
			c-0.417,0.851-0.769,1.598-1.045,2.222c-0.281,0.631-0.509,1.164-0.629,1.532c-0.503,1.482-1.794,3.434-3.485,5.595
			c-1.698,2.145-3.779,4.534-5.935,6.634c-2.148,2.117-4.356,3.912-6.138,5.203c-0.921,0.572-1.68,1.182-2.344,1.569
			c-0.326,0.214-0.6,0.457-0.848,0.658c-0.256,0.176-0.466,0.363-0.631,0.562c-1.313,1.54-2.353,3.293-3.517,4.946
			c-0.278,0.421-0.543,0.857-0.791,1.296c-0.25,0.435-0.507,0.798-0.72,1.201c-0.433,0.786-0.755,1.558-0.89,2.246
			c-0.489,2.738-1.218,9.942,2.106,7.706c0.391-0.281,0.816-0.525,1.26-0.741c0.444-0.235,0.91-0.494,1.381-0.701
			c0.471-0.214,0.949-0.405,1.418-0.576c0.236-0.081,0.469-0.162,0.698-0.241c0.224-0.096,0.446-0.191,0.659-0.283
			c0.862-0.356,1.641-0.633,2.208-0.822c0.288-0.087,0.512-0.172,0.66-0.242C258.052,171.27,258.136,171.236,258.136,171.236z"/>
		<path style="fill:#231815;" d="M372.653,73.691c-0.927,1.038-1.559,2.658-1.961,4.395c-0.416,1.742-0.63,3.601-0.991,5.317
			c-0.365,1.714-0.898,2.959-1.372,3.712c-0.471,0.753-0.893,1-0.895,0.721c0.015-0.546-1.771-1.664-1.543-4.587
			c0.239-2.885,0.39-5.271,0.423-6.772c0.005-0.75,0.201-0.915,0.533-1.39c0.37-0.467,0.839-1.266,1.915-3.137
			c1.124-1.877,2.46-2.485,3.248-2.489c0.8-0.012,1.165,0.528,0.963,1.062c-0.223,0.53-0.326,1.356-0.359,2
			C372.607,73.193,372.653,73.691,372.653,73.691z"/>
		<path style="fill:#231815;" d="M335.168,109.714c-0.156,0.676-0.15,1.354-0.096,1.937c0.088,0.605,0.27,1.142,0.497,1.573
			c0.514,0.895,1.24,1.346,1.954,1.356c0.717,0.016,1.448-0.38,2.026-1.063c0.279-0.339,0.603-0.789,0.829-1.314
			c0.286-0.548,0.49-1.184,0.741-1.981c0.957-3.212,1.612-6.473,2.622-10.21c1.025-3.72,2.468-7.931,5.476-12.574
			c2.867-4.403,6.309-8.49,9.839-11.582c1.761-1.542,3.547-2.833,5.235-3.733c0.195-0.12,0.448-0.225,0.6-0.297l0.252-0.09
			c0.175-0.055,0.34-0.088,0.484-0.123c0.289-0.038,0.562-0.072,0.718,0.016c0.009,0.2-0.002,0.316-0.012,0.423
			c-0.05,0.416,0.214,0.502,0.676,0.867c0.462,0.727,1.122,1.077,1.787,1.017c0.333-0.028,0.67-0.153,0.99-0.37
			c0.161-0.111,0.317-0.242,0.469-0.401c0.076-0.085,0.15-0.154,0.222-0.269c0.074-0.152,0.145-0.322,0.214-0.51
			c0.276-0.747,0.535-1.821,0.604-3.113c0.05-1.285-0.069-2.683-0.279-4.428c-0.663,0.102-1.401,0.235-2.181,0.389
			c-0.753,0.155-1.532,0.312-2.358,0.532c-0.852,0.358-1.736,0.689-2.624,1.148c-0.434,0.217-0.913,0.563-1.328,0.836
			c-0.26,0.194-0.512,0.4-0.745,0.629c-1.484,1.331-2.592,2.508-3.736,3.586c-1.11,1.101-2.222,2.124-3.382,3.303
			c-2.326,2.345-5.054,5.214-8.202,10.37C341.477,93.866,336.703,102.615,335.168,109.714z"/>
		<path style="fill:#231815;" d="M350.393,99.731c2.226-1.725,4.782-3.415,7.522-4.825c1.381-0.706,2.795-1.412,4.425-1.977
			c0.806-0.287,1.674-0.538,2.676-0.685c0.208-0.05,0.585-0.055,0.894-0.063c0.328,0,0.628-0.019,1.008,0.061
			c0.73,0.104,1.427,0.364,2.013,0.791c0.284,0.226,0.577,0.448,0.773,0.76l0.312,0.45c0.083,0.162,0.155,0.332,0.225,0.502
			c0.155,0.335,0.245,0.694,0.3,1.068c0.031,0.184,0.059,0.374,0.076,0.555l0.004,0.485c-0.025,1.305-0.263,2.123-0.531,3.044
			c-0.546,1.769-1.278,3.348-2.073,4.893c-1.606,3.072-3.488,5.967-5.564,8.783c-1.021,1.39-2.184,2.818-3.281,4.095
			c-1.1,1.299-2.204,2.602-3.308,3.904c-2.207,2.6-4.372,5.213-6.493,7.823c-4.222,5.23-8.139,10.527-11.431,15.806
			c-3.3,5.275-5.602,10.01-7.181,14.055c-0.366,1.022-0.714,1.991-1.042,2.906c-0.327,0.919-0.516,1.812-0.767,2.639
			c-0.531,1.653-0.76,3.132-1.029,4.393c-0.116,0.631-0.291,1.207-0.34,1.735c-0.068,0.53-0.129,1.003-0.182,1.422
			c-0.117,0.841-0.222,1.466-0.31,1.872c-0.176,0.813-0.281,0.742-0.268-0.209c0.021-0.952-0.103-2.141-0.198-3.705
			c0.008-0.784,0.015-1.657,0.025-2.635c0.011-0.492,0-1.015,0.036-1.561c0.062-0.543,0.128-1.115,0.197-1.717
			c0.535-4.795,2.214-11.64,7.13-20.046c2.421-4.214,5.056-7.984,7.58-11.468c2.52-3.492,5.026-6.621,7.309-9.515
			c2.308-2.859,4.415-5.47,6.296-7.802c0.467-0.582,0.919-1.147,1.358-1.694c0.416-0.531,0.813-1.048,1.186-1.56
			c0.744-1.024,1.414-1.994,1.995-2.905c1.149-1.824,1.888-2.996,2.564-4.07c0.673-1.067,1.309-2.023,2.121-3.461
			c0.391-0.719,0.851-1.563,1.261-2.586c0.211-0.511,0.393-1.061,0.544-1.636c0.04-0.246,0.126-0.615,0.124-0.73l0.011-0.129
			l0.002-0.059l-0.01-0.11l-0.134-0.197l-0.124-0.051l-0.069-0.016l-0.159,0.001l-0.164,0.001l-0.301,0.05
			c-0.206,0.037-0.406,0.05-0.648,0.127c-0.234,0.063-0.472,0.127-0.716,0.193c-0.252,0.09-0.509,0.181-0.771,0.274
			c-1.054,0.387-2.207,0.924-3.437,1.569c-1.243,0.662-2.518,1.368-3.837,2.277c-5.292,3.629-8.909,7.424-11.511,10.421
			c-2.563,3.053-4.101,5.424-5.066,6.941c-0.959,1.52-1.452,2.167-1.653,1.912c-0.159-0.235-0.063-1.409,0.674-3.226
			c0.735-1.809,1.745-3.865,2.943-5.868c1.188-2.011,2.576-3.951,3.903-5.633c1.319-1.693,2.605-3.102,3.55-4.099
			c0.482-0.492,0.868-0.888,1.134-1.16C350.243,99.876,350.393,99.731,350.393,99.731z"/>
		<path style="fill:#231815;" d="M122.252,443.625c-3.085,0.184-6.285,0.103-9.386-0.415c-0.777-0.122-1.536-0.313-2.299-0.475
			c-0.698-0.211-1.672-0.458-1.845-0.55c-0.702-0.242-1.359-0.56-1.953-0.917l-0.11-0.063l-0.045-0.034l0.041-0.052l0.161-0.209
			c0.099-0.146,0.239-0.257,0.355-0.384c0.251-0.238,0.53-0.435,0.811-0.611c0.288-0.168,0.579-0.312,0.869-0.434
			c0.284-0.113,0.564-0.226,0.844-0.339c0.316-0.125,0.649-0.23,0.969-0.345c2.612-0.868,5.314-1.443,7.809-2.03
			c5.014-1.115,9.252-2.417,11.899-3.435c2.034-0.731,4.265-1.904,6.224-3.478c1.958-1.566,3.631-3.499,4.681-5.406
			c1.057-1.905,1.589-3.707,1.557-5.048c-0.036-1.351-0.533-2.201-1.58-2.436c-0.865-0.197-1.788,0.306-2.743,1.146
			c-0.993,0.819-1.989,2.005-3.144,3.171c-1.131,1.183-2.354,2.404-3.588,3.506c-1.232,1.104-2.488,2.074-3.459,2.91
			c-0.605,0.49-1.727,1.281-3.387,2.102c-1.65,0.836-3.818,1.714-6.373,2.566c-2.546,0.877-5.48,1.686-8.555,2.856
			c-0.768,0.299-1.543,0.619-2.315,0.993c-0.422,0.176-0.964,0.51-1.435,0.758c-0.503,0.25-0.907,0.596-1.362,0.886
			c-0.44,0.304-0.79,0.664-1.188,0.989c-0.346,0.353-0.671,0.711-0.993,1.076c-0.296,0.391-0.61,0.738-0.89,1.158
			c-0.254,0.404-0.728,0.862-0.412,1.11l1.832,0.951c0.604,0.28,1.205,0.557,1.805,0.835c0.576,0.296,1.249,0.471,1.856,0.709
			l0.925,0.331c0.327,0.107,0.586,0.16,0.831,0.228c2.016,0.573,4.022,0.857,5.913,1.057c3.794,0.355,7.162,0.211,9.733,0.054
			c6.601-0.385,13.641-2.006,20.064-3.913c6.432-1.909,12.29-4.084,16.764-5.667c8.927-3.195,11.098-10.469-2.406-3.938
			c-6.729,3.219-11.614,5.197-16.92,6.894c-2.653,0.841-5.412,1.61-8.573,2.302C130.074,442.712,126.504,443.351,122.252,443.625z"
			/>
		<path style="fill:#231815;" d="M235.803,161.174c1.871,0.069,3.592,0.019,5.142-0.119c0.387-0.042,0.764-0.081,1.129-0.12
			c0.363-0.026,0.714-0.051,1.052-0.074c0.678-0.061,1.312-0.145,1.894-0.249c2.328-0.417,3.863-1.149,4.236-2.017
			c0.371-0.867-0.432-1.873-2.835-2.846c-1.201-0.461-2.803-1.019-4.843-1.351c-2.038-0.28-4.524-0.576-7.463-0.634
			c-11.982-0.051-22.922,2.315-34.757,5.931c-2.98,0.85-5.969,1.971-9.101,3.012c-1.564,0.529-3.126,1.159-4.738,1.744
			c-1.608,0.598-3.254,1.185-4.908,1.872c-6.674,2.575-13.823,5.636-21.697,9.322c-1.981,0.895-3.903,1.931-5.86,2.884
			c-1.924,1.027-3.851,2.045-5.735,3.146l-2.806,1.689c-0.927,0.573-1.808,1.205-2.712,1.803c-0.891,0.615-1.809,1.189-2.676,1.832
			c-0.863,0.648-1.724,1.295-2.583,1.939c-1.751,1.247-3.325,2.699-4.972,4.035c-1.601,1.388-3.12,2.849-4.643,4.274
			c-2.933,2.962-5.725,5.965-8.194,9.089c-4.998,6.204-9.031,12.582-12.322,18.552c-3.281,5.979-5.888,11.535-7.934,16.315
			c-1.013,2.33-1.675,4.43-2.138,6.205c-0.428,1.786-0.601,3.264-0.58,4.378c0.049,2.229,0.918,3.011,2.346,2.004
			c1.434-1.004,3.377-3.812,5.782-8.679c2.465-4.845,5.27-11.779,9.302-20.812c4.43-9.619,9.075-16.13,15.785-22.998
			c3.397-3.393,7.283-6.946,12.374-10.589c2.544-1.817,5.349-3.725,8.514-5.601c1.608-0.921,3.308-1.867,5.094-2.841
			c1.828-0.914,3.69-1.95,5.716-2.905c6.413-3.168,13.145-5.891,19.883-8.228c3.353-1.221,6.757-2.203,10.091-3.235
			c1.685-0.453,3.359-0.903,5.018-1.349c0.83-0.219,1.658-0.438,2.48-0.655c0.829-0.187,1.656-0.373,2.477-0.558
			C213.756,162.312,226.074,160.995,235.803,161.174z"/>
		<path style="fill:#231815;" d="M97.576,323.044c0.33-6.406-0.915-10.985-2.366-11.396c-0.718-0.218-1.464,0.564-2.1,2.557
			c-0.63,1.996-1.234,5.202-1.506,10.015c-0.238,4.9-0.218,9.778,0.908,14.839c0.124,0.629,0.309,1.263,0.494,1.895
			c0.166,0.633,0.397,1.266,0.639,1.897c0.216,0.634,0.51,1.26,0.813,1.883c0.309,0.667,0.579,1.154,0.859,1.681
			c1.126,2.091,2.219,4.272,3.314,6.549c2.202,4.548,4.374,9.505,6.87,14.922c1.251,2.708,2.598,5.529,4.115,8.449
			c1.513,2.928,3.252,5.921,5.135,9.015c7.556,12.385,16.666,24.036,26.704,32.763c4.987,4.385,10.222,7.981,15.345,10.66
			c5.135,2.653,10.148,4.402,14.562,5.26c4.319,0.862,7.622,0.504,9.375-0.193c1.772-0.678,2.061-1.551,0.862-2.328
			c-1.2-0.791-3.859-1.363-8.053-2.372c-4.19-1.03-9.97-2.487-17.382-5.856c-3.962-1.812-7.225-3.876-10.215-6.128
			c-2.988-2.264-5.711-4.731-8.533-7.628c-2.814-2.907-5.748-6.233-9-10.403c-3.257-4.163-6.862-9.152-10.853-15.489
			c-1.597-2.543-3.113-5.116-4.456-7.763c-1.356-2.652-2.586-5.379-3.738-8.128c-2.304-5.5-4.296-11.095-6.421-16.453
			c-1.063-2.679-2.142-5.305-3.302-7.832c-1.044-2.211-1.539-4.519-1.856-6.893C97.2,331.832,97.422,327.181,97.576,323.044z"/>
		<path style="fill:#231815;" d="M157.344,500.784l-0.049,0.056c-0.005,0.032-0.019,0.014,0.125,0.299
			c0.196,0.459,0.513,0.848,0.816,1.264c0.676,0.767,1.47,1.498,2.474,1.991c1.959,1.055,4.406,1.468,6.74,1.789
			c2.336,0.334,4.116,0.653,5.199,1.024c1.086,0.345,1.477,0.724,1.092,0.772c-0.386,0.037-0.897,0.559-1.842,1.058
			c-0.937,0.514-2.331,1.036-4.382,0.967c-2.043-0.094-3.916-0.276-5.54-0.633c-1.616-0.361-3.006-0.768-4.019-1.212
			c-1.045-0.389-1.206-0.75-1.766-1.399c-0.272-0.337-0.579-0.829-1.108-1.495c-0.229-0.357-0.498-0.775-0.819-1.272
			c-0.164-0.244-0.288-0.534-0.454-0.829c-0.117-0.242-0.444-0.763-0.642-1.316c-0.194-0.495-0.379-0.968-0.555-1.416
			c-0.082-0.222-0.161-0.438-0.239-0.648l-0.106-0.306l-0.036-0.257c0.851-0.451,1.774-0.854,2.256-1.208
			c0.229-0.127,0.462-0.287,0.696-0.452c0.466-0.338,0.918-0.607,1.273-0.68c0.718-0.149,1.036,0.301,0.858,0.962
			c-0.076,0.323-0.163,0.689-0.252,1.059c-0.048,0.198-0.107,0.408-0.177,0.618c-0.031,0.106-0.076,0.212-0.114,0.318
			c-0.03,0.096-0.114,0.238-0.087,0.264c0.026,0.397,0.28,0.527,0.48,0.594C157.259,500.784,157.353,500.782,157.344,500.784z"/>
		<path style="fill:#231815;" d="M144.518,501.482c0.475,1.49,1.393,3.049,2.774,4.103l0.525,0.386
			c0.184,0.114,0.38,0.207,0.569,0.316c0.185,0.117,0.384,0.206,0.593,0.273l0.283,0.11l0.074,0.025
			c0.088-0.002,0.183,0.01,0.144-0.105l-0.01-0.052l-0.004-0.025l0.081-0.44l0.33-1.771c0.223-1.184,0.46-2.376,0.718-3.562
			c0.519-2.371,1.142-4.725,1.971-6.919c1.654-4.414,3.832-7.112,5.27-8.431c1.48-1.317,2.153-1.476,1.755-0.937
			c-0.197,0.275-0.36,0.682-0.546,1.214c-0.155,0.539-0.346,1.203-0.583,2.033c-0.471,1.635-1.092,3.818-2.131,6.893
			c-1.035,3.088-1.58,6.025-1.969,8.546c-0.189,1.266-0.335,2.43-0.449,3.478c-0.029,0.263-0.055,0.517-0.081,0.764
			c-0.067,0.448-0.131,0.881-0.193,1.298c-0.164,0.857-0.317,1.651-0.457,2.38c-0.037,0.19-0.072,0.371-0.107,0.544l-0.051,0.256
			l-0.026,0.123L152.901,512c-0.304-0.025-0.584-0.048-0.845-0.069c-0.529-0.05-0.995-0.107-1.438-0.173
			c-0.44-0.094-0.859-0.203-1.306-0.322c-0.435-0.138-0.95-0.208-1.446-0.457c-0.276-0.131-0.409-0.208-0.621-0.319
			c-0.197-0.112-0.424-0.204-0.645-0.358c-0.435-0.312-0.998-0.606-1.559-1.108c-1.163-0.934-2.604-2.38-3.847-4.786
			c-1.239-2.418-1.406-4.609-1.33-6.203c0.077-0.807,0.175-1.482,0.366-2.031c0.157-0.552,0.346-0.975,0.556-1.288
			c0.789-1.243,1.361-0.803,1.37,0.475c0.038,1.31,0.494,2.996,1.106,4.185c0.158,0.291,0.305,0.565,0.44,0.813
			c0.158,0.229,0.301,0.434,0.419,0.605C144.344,501.304,144.518,501.482,144.518,501.482z"/>
		<path style="fill:#231815;" d="M151.525,444.608c-5.681,5.461-11.852,12.808-16.387,21.422c-0.535,1.09-1.14,2.152-1.619,3.274
			l-0.76,1.667c-0.262,0.56-0.451,1.06-0.661,1.628c-0.813,2.228-1.473,4.612-2.044,6.981c-1.131,4.748-1.94,9.539-2.24,14.024
			c-0.141,2.237-0.135,4.294,0.102,6.044c0.117,0.872,0.297,1.663,0.536,2.318c0.247,0.643,0.544,1.137,0.858,1.432
			c0.315,0.292,0.66,0.482,1.145,0.544c0.475,0.063,1.025,0.03,1.563-0.096c1.082-0.229,2.082-0.675,2.919-1.06
			c1.675-0.82,2.779-1.472,3.341-1.724c0.566-0.257,0.593-0.141,0.052,0.31c-0.537,0.458-1.158,1.084-2.003,1.885
			c-0.863,0.778-1.927,1.767-3.644,2.591c-0.863,0.376-1.944,0.761-3.291,0.567c-0.662-0.094-1.368-0.363-1.979-0.805
			c-0.616-0.437-1.128-1.022-1.532-1.664c-0.806-1.29-1.274-2.787-1.554-4.379c-0.284-1.599-0.382-3.313-0.352-5.143
			c0.081-3.658,0.512-7.059,1.019-10.23c0.518-3.17,1.138-6.105,1.827-8.797c0.345-1.347,0.707-2.631,1.107-3.86
			c0.201-0.615,0.407-1.214,0.638-1.807c0.231-0.558,0.455-1.102,0.674-1.63c0.426-1.056,0.845-2.041,1.275-2.94
			c0.419-0.907,0.785-1.763,1.179-2.517c0.752-1.53,1.284-2.492,1.849-3.319c0.554-0.835,1.081-1.581,1.913-2.624
			c0.806-1.061,1.895-2.438,3.583-4.518c1.7-2.07,4.027-4.825,7.475-8.481c3.457-3.649,6.474-6.274,8.878-8.2
			c2.407-1.923,4.225-3.125,5.444-3.796c2.436-1.337,2.486-0.541,0.489,1.465c-1.989,2.015-4.519,4.827-6.456,7.197
			c-0.979,1.176-1.805,2.246-2.408,3.001C151.878,444.141,151.525,444.608,151.525,444.608z"/>
		<path style="fill:#231815;" d="M221.734,222.742c0.779,0.519,1.946,1.041,3.303,1.739c1.41,0.599,3.041,1.331,4.907,1.956
			c3.707,1.311,8.209,2.498,12.821,3.364c9.228,1.774,18.829,2.171,23.278,2.061c2.227-0.039,5.525-0.096,9.37-0.163
			c3.84-0.124,8.224-0.358,12.613-0.765c4.386-0.421,8.769-1.053,12.617-1.779c3.852-0.715,7.141-1.609,9.411-2.3
			c7.045-2.22,10.608-4.516,12.7-5.832c1.011-0.719,1.732-1.145,2.25-1.455c0.519-0.307,0.913-0.412,1.355-0.388
			c0.939,0.053,1.765,0.281,1.917,0.894c0.075,0.307-0.019,0.713-0.358,1.245c-0.35,0.509-0.895,1.243-1.849,1.93
			c-1.839,1.537-5.308,2.893-8.532,3.855c-0.811,0.224-1.607,0.445-2.365,0.654c-0.755,0.208-1.484,0.356-2.138,0.53
			c-1.306,0.349-2.358,0.634-2.953,0.911c-0.295,0.143-0.994,0.388-2.003,0.71c-1.014,0.3-2.348,0.635-3.894,1.031
			c-3.111,0.694-7.106,1.475-11.237,1.982c-8.257,1.09-16.979,1.247-19.877,1.25c-2.9,0.069-10.325,0.01-17.474-0.674
			c-3.577-0.303-7.075-0.797-9.919-1.228c-1.416-0.251-2.671-0.473-3.692-0.654c-1.015-0.211-1.797-0.373-2.271-0.471
			c-1.904-0.364-5.753-0.958-9.738-1.92c-3.984-0.935-8.054-2.499-10.293-3.994c-0.558-0.374-1.089-0.745-1.555-1.164
			c-0.459-0.435-0.872-0.873-1.234-1.301c-0.744-0.825-1.197-1.736-1.463-2.431c-0.522-1.407-0.205-2.157,0.883-1.602
			c0.556,0.272,1.104,0.711,1.704,1.139c0.611,0.417,1.21,0.887,1.743,1.333C220.871,222.034,221.734,222.742,221.734,222.742z"/>
		<path style="fill:#231815;" d="M211.245,266.864c3.618,1.256,12.548,3.797,21.845,5.391c2.327,0.364,4.656,0.789,6.932,1.075
			c2.277,0.262,4.483,0.514,6.536,0.75c4.121,0.283,7.621,0.558,9.858,0.486c4.463,0.073,13.213,0.216,22.014-0.428
			c1.099-0.092,2.2-0.182,3.292-0.273c1.095-0.08,2.181-0.178,3.243-0.34c2.129-0.289,4.204-0.545,6.146-0.832
			c3.851-0.745,7.231-1.307,9.52-2.001c1.79-0.484,3.392-0.904,4.807-1.337c1.394-0.498,2.624-0.938,3.713-1.327
			c1.081-0.403,2.021-0.752,2.842-1.057c0.799-0.357,1.482-0.661,2.069-0.924c2.348-1.046,3.191-1.333,4.057-1.062
			c1.84,0.576,2.878,1.786-1.215,3.866c-1.025,0.512-2.396,1.044-3.932,1.495c-1.556,0.394-3.255,0.76-4.889,1.103
			c-0.819,0.167-1.615,0.351-2.381,0.491c-0.769,0.127-1.499,0.246-2.166,0.356c-1.328,0.238-2.389,0.48-2.989,0.75
			c-0.301,0.133-1.004,0.365-2.022,0.645c-1.029,0.234-2.372,0.518-3.932,0.836c-3.109,0.714-7.148,1.211-11.277,1.737
			c-8.289,0.914-17.021,0.824-19.921,0.785c-2.905,0.039-10.324-0.305-17.467-1.023c-7.133-0.805-13.969-1.982-15.864-2.369
			c-1.892-0.4-5.771-0.742-9.757-1.458c-4.013-0.595-8.115-1.594-10.558-2.466c-4.845-1.967-7.654-5.677-5.073-5.35
			c1.286,0.161,2.921,0.785,4.242,1.371c0.659,0.293,1.241,0.577,1.657,0.786C210.99,266.741,211.245,266.864,211.245,266.864z"/>
		<path style="fill:#231815;" d="M200.942,309.866c0.836,0.376,1.979,0.861,3.357,1.429c1.38,0.559,2.973,1.267,4.813,1.774
			c0.911,0.28,1.863,0.572,2.845,0.873c0.985,0.291,1.989,0.639,3.054,0.842c2.117,0.449,4.305,1.006,6.537,1.383
			c2.244,0.315,4.489,0.684,6.682,0.928c2.201,0.163,4.331,0.322,6.314,0.47c3.98,0.053,7.358,0.134,9.509-0.092
			c4.297-0.204,12.727-0.702,21.209-1.761c4.243-0.506,8.488-1.19,12.249-1.803c3.75-0.691,7.021-1.272,9.286-1.798
			c14.081-3.162,15.922-4.751,17.512-3.92c1.684,0.845,2.438,2.214-1.693,3.644c-4.128,1.467-13.632,1.689-15.968,2.615
			c-1.163,0.497-8.639,1.996-16.569,3.181c-7.935,1.187-16.342,1.724-19.142,1.862c-2.795,0.223-9.976,0.402-16.915,0.038
			c-3.462-0.302-6.875-0.514-9.621-1.005c-1.377-0.202-2.598-0.382-3.589-0.527c-0.99-0.164-1.738-0.362-2.199-0.45
			c-0.917-0.198-2.31-0.412-3.965-0.648c-0.414-0.059-0.845-0.121-1.287-0.184c-0.436-0.093-0.885-0.187-1.343-0.284
			c-0.918-0.197-1.872-0.4-2.836-0.606c-0.965-0.218-1.939-0.436-2.896-0.652c-0.935-0.292-1.852-0.588-2.724-0.883
			c-1.737-0.602-3.309-1.159-4.426-1.759c-4.445-2.602-6.49-6.569-4.069-5.922c1.202,0.318,2.655,1.13,3.822,1.87
			c0.583,0.369,1.095,0.722,1.46,0.98C200.709,309.729,200.942,309.866,200.942,309.866z"/>
		<path style="fill:#231815;" d="M189.419,347.703c1.55,0.841,4.321,2.033,7.777,3.253c3.459,1.214,7.624,2.379,11.889,3.301
			c8.533,1.878,17.397,2.745,21.568,2.992c4.172,0.211,12.267,1.406,20.367,1.35c2.019-0.028,4.048-0.128,5.972-0.373
			c1.919-0.202,3.764-0.667,5.493-1.106c3.447-0.974,6.399-2.155,8.462-2.999c3.195-1.333,5.724-2.453,7.777-3.281
			c2.045-0.844,3.618-1.394,4.819-1.774c2.414-0.739,3.334-0.815,4.09-0.356c0.807,0.485,1.32,1.092,1.148,1.708
			c-0.085,0.308-0.338,0.618-0.805,0.917c-0.468,0.289-1.147,0.579-2.092,0.915c-1.884,0.626-4.986,1.226-7.932,2.001
			c-2.938,0.762-5.694,1.542-6.719,2.188c-0.518,0.317-2.463,1.192-5.278,2.174c-1.402,0.498-3.04,0.981-4.813,1.418
			c-1.778,0.399-3.726,0.744-5.677,0.889c-7.828,0.657-15.885-0.463-18.551-0.696c-1.334-0.15-3.706-0.417-6.569-0.739
			c-2.85-0.323-6.221-0.714-9.51-1.192c-6.597-0.904-12.899-2.295-14.646-2.727c-1.752-0.4-5.324-0.968-9.012-1.856
			c-3.682-0.885-7.472-2.124-9.591-3.361c-2.137-1.204-3.671-2.888-4.333-4.155c-0.675-1.256-0.528-2.073,0.604-1.725
			c0.567,0.175,1.186,0.473,1.801,0.826c0.621,0.338,1.248,0.71,1.8,1.075c0.552,0.37,1.042,0.699,1.395,0.937
			C189.205,347.554,189.419,347.703,189.419,347.703z"/>
		<path style="fill:#231815;" d="M169.564,189.373c0.99,3.013,2.177,6.345,3.076,10.092c0.436,1.879,0.791,3.873,0.867,6.017
			c0.049,2.129-0.174,4.507-1.312,6.76c-0.246,0.555-0.645,1.116-0.967,1.585l-1.002,1.276c-0.678,0.84-1.411,1.597-2.14,2.362
			c-1.491,1.469-3.031,2.858-4.615,4.114c-3.155,2.545-6.388,4.779-9.489,6.813c-6.225,4.029-10.647,6.567-13.257,8.128
			c-2.6,1.556-3.558,1.91-2.738,1.164c0.824-0.735,1.784-2.161,3.747-4.192c1.948-2.043,4.908-4.656,9.466-7.808
			c4.544-3.157,8.526-6.121,11.542-8.954c1.536-1.393,2.765-2.784,3.79-4.043c0.457-0.639,0.933-1.282,1.25-1.811
			c0.269-0.492,0.468-0.973,0.577-1.454c0.239-0.95,0.305-1.612,0.389-2.234c0.081-0.621,0.179-1.205,0.211-2.11
			c0.052-1.79-0.029-4.954-2.617-12.175c-1.294-3.608-2.312-6.557-2.906-8.926c-0.609-2.362-0.802-4.137-0.749-5.271
			c0.051-1.139,0.314-1.621,0.576-1.551c0.279,0.068,0.567,0.66,0.915,1.686c0.709,2.062,2.082,4.673,3.259,6.783
			C168.639,187.744,169.564,189.373,169.564,189.373z"/>
		<path style="fill:#231815;" d="M115.236,231.403c1.844,0.645,4.158,1.247,6.417,1.909c2.247,0.664,4.358,1.136,6.385,1.657
			c2.021,0.52,3.487,1.153,4.352,1.686c0.865,0.535,1.123,0.977,0.792,0.955c-0.655-0.065-2.089,1.635-5.515,1.161
			c-3.403-0.509-6.201-1.06-7.782-1.141c-0.799-0.045-0.97-0.213-1.483-0.546c-0.518-0.331-1.362-0.846-3.537-1.409
			c-2.17-0.549-3.401-1.293-3.915-1.987c-0.512-0.691-0.3-1.297,0.397-1.377c0.695-0.082,1.657-0.336,2.456-0.529
			C114.612,231.568,115.236,231.403,115.236,231.403z"/>
		<path style="fill:#231815;" d="M184.401,211.564c1.656,0.162,3.663-0.005,5.824,0.009c2.15,0.01,4.49,0.212,6.497,1.023
			c2.01,0.81,3.131,1.998,3.618,2.824c0.493,0.838,0.455,1.306,0.208,1.162c-0.256-0.138-0.845-0.025-1.652,0.043
			c-0.821,0.075-1.803,0.054-3.071-0.316c-2.568-0.755-4.828-0.457-6.095-0.102c-1.298,0.408-0.673-0.517-4.625-0.428
			c-3.989,0.137-4.859-1.946-3.713-2.411C182.517,212.903,184.401,211.564,184.401,211.564z"/>
		<path style="fill:#231815;" d="M127.521,317.159c0.658,2.133,1.532,4.48,2.297,7.122c0.377,1.325,0.729,2.727,0.934,4.253
			c0.183,1.527,0.265,3.201-0.188,4.984c-0.095,0.442-0.268,0.886-0.433,1.324l-0.307,0.656c-0.113,0.236-0.348,0.569-0.541,0.833
			c-0.79,0.931-1.453,1.353-2.135,1.836c-1.347,0.9-2.659,1.58-3.977,2.221c-2.631,1.264-5.25,2.285-7.782,3.146
			c-10.124,3.368-14.808,2.673-13.235,2.275c1.543-0.449,4.053-2.922,11.387-5.65c3.656-1.388,6.879-2.851,9.378-4.332
			c1.224-0.721,2.345-1.532,2.844-2.146l0.115-0.175l0.016-0.094c0.041-0.174,0.136-0.353,0.159-0.541
			c0.085-0.365,0.127-0.72,0.126-1.064c0.011-0.68-0.02-1.149-0.007-1.588c0.004-0.444,0.046-0.859,0.035-1.5
			c-0.016-1.278-0.212-3.473-2.121-8.625c-0.949-2.58-1.594-4.759-1.894-6.514c-0.304-1.761-0.273-3.083-0.082-3.91
			c0.427-1.656,1.071-1.315,1.458,0.129c0.433,1.475,1.415,3.318,2.309,4.779C126.766,316.041,127.521,317.159,127.521,317.159z"/>
		<path style="fill:#231815;" d="M133.542,333.074c4.885,1.751,11.482,4.102,16.435,6.924c2.47,1.411,4.03,2.645,4.933,3.505
			c0.901,0.841,1.115,1.37,0.711,1.222c-0.768-0.279-3.074,0.703-7.014-1.159c-3.895-1.857-7.144-2.952-9.112-3.334
			c-0.982-0.2-1.195-0.392-1.84-0.84c-0.645-0.418-1.727-1.148-4.458-2.004c-2.717-0.809-4.221-1.475-4.984-2.081
			c-0.76-0.631-0.668-1.259,0.247-1.414c0.907-0.19,2.155-0.405,3.207-0.568c0.528-0.073,0.995-0.137,1.33-0.183
			C133.342,333.089,133.542,333.074,133.542,333.074z"/>
		<path style="fill:#231815;" d="M128.324,394.911c2.264,0.044,4.965-0.32,7.731-0.824c2.77-0.5,5.608-1.114,8.246-1.466
			c5.268-0.716,7.782,0.302,7,0.524c-0.784,0.188-1.932,2.272-5.941,3.146c-3.999,0.86-7.174,1.779-9.029,2.46
			c-1.861,0.641-1.147-0.197-6.875,0.319c-5.759,0.409-6.894-1.758-5.299-2.223C125.76,396.371,128.324,394.911,128.324,394.911z"/>
		<path style="fill:#231815;" d="M151.492,388.604c2.155-3.067,3.878-8.359,7.021-11.965c1.559-1.79,3.102-2.668,4.108-3.01
			c1.016-0.343,1.494-0.221,1.258,0.014c-0.484,0.513-0.267,2.531-2.153,5.064c-1.894,2.61-2.805,5.129-3.184,6.661
			c-0.372,1.557-0.792,0.534-3.009,4.664c-1.116,2.073-2.292,3.052-3.119,3.312c-0.826,0.263-1.312-0.163-1.163-0.842
			C151.562,391.147,151.492,388.604,151.492,388.604z"/>
		<path style="fill:#231815;" d="M326.389,87.027c-6.563-3.281-1.008-17.134,6.047-14.11
			C339.49,75.94,334.451,91.058,326.389,87.027z"/>
		<path style="fill:#231815;" d="M292.986,118.768c0,0,2.802-12.606,8.405-14.007C306.993,103.36,299.99,117.367,292.986,118.768z"
			/>
	</g>
	<g>
		<path style="fill:#231612;" d="M234.231,65.081c0.77,0.414,1.545,1.066,2.233,1.784c0.981,0.996,2.732,3.228,4.102,5.587
			c1.385,2.336,2.484,4.691,2.536,5.593c0.064,1.219,0.616,2.46,1.713,3.084c1.088,0.628,2.775,0.596,4.543-1.112
			c1.468-1.368,1.943-2.406,1.704-3.431c-0.223-0.993-1.105-1.837-2.029-2.136c-0.608-0.188-2.382-2.166-4.414-4.317
			c-2.017-2.158-4.382-4.401-5.733-5.315c-1.388-1-2.737-1.859-3.739-2.469c-0.177-0.12-0.624-0.353-1.393-0.564
			c-0.77-0.23-1.924-0.302-3.124,0.192c-1.234,0.501-2.286,1.578-3.043,2.769c-0.756,1.197-1.508,2.703-1.48,4.57
			c-0.012,0.921,0.281,1.86,0.693,2.697c0.24,0.391,0.46,0.819,0.763,1.15l0.433,0.526l0.476,0.461
			c1.291,1.209,2.767,2.047,4.221,2.743c2.924,1.367,5.822,2.187,8.204,2.823c4.7,1.192,7.382,1.699,9.019,2.121
			c1.64,0.401,2.246,0.631,2.844,0.84c1.197,0.414,2.363-0.983,2.903-2.427c0.563-1.431-0.012-3.072-2.184-2.828
			c-1.043,0.115-1.79,0.233-3.395,0.143c-1.595-0.104-4.064-0.336-8.371-1.256c-2.281-0.511-5.037-1.232-7.625-2.376
			c-1.281-0.572-2.518-1.274-3.431-2.104c-0.922-0.838-1.439-1.715-1.436-2.605c-0.05-0.892,0.385-1.956,0.954-2.859
			c0.144-0.224,0.277-0.459,0.435-0.62c0.151-0.168,0.288-0.387,0.435-0.482c0.286-0.274,0.521-0.44,0.792-0.541
			c0.538-0.202,1.041-0.161,1.418-0.056c0.226,0.094,0.421,0.142,0.588,0.222C234.012,64.971,234.142,65.037,234.231,65.081z"/>
		<path style="fill:#231612;" d="M276.727,31.264c0.137,0.926,0.084,1.938-0.103,2.934c-0.214,1.398-1.122,4.159-2.294,6.783
			c-1.16,2.613-2.357,5.166-3.019,5.875c-0.92,0.934-1.509,2.369-1.201,3.657c0.297,1.291,1.492,2.326,3.923,2.576
			c2.002,0.208,3.118-0.395,3.683-1.226c0.558-0.836,0.562-1.969,0.185-2.846c-0.272-0.564,0.08-3.138,0.669-6.074
			c0.283-1.466,0.595-3.021,0.807-4.435c0.219-1.411,0.317-2.683,0.324-3.522c0.017-1.779-0.12-3.441-0.221-4.617
			c-0.066-0.395-0.243-2.107-1.645-4.045c-0.684-0.958-1.644-1.931-2.814-2.766c-1.176-0.836-2.515-1.567-3.961-2.217
			c-0.771-0.334-1.777-0.711-2.749-0.908c-0.979-0.19-1.992-0.259-2.926,0.057c-0.95,0.286-1.714,1.083-2.037,2.007
			c-0.34,0.923-0.402,1.947-0.311,2.976c0.039,0.515,0.126,1.03,0.223,1.539c0.096,0.48,0.201,0.897,0.301,1.28
			c0.209,0.785,0.448,1.533,0.696,2.251c0.497,1.434,1.034,2.745,1.54,3.917c2.027,4.588,3.392,7.072,4.162,8.667
			c0.791,1.582,1.057,2.225,1.331,2.853c0.558,1.27,2.55,1.247,3.833,0.396c1.269-0.868,2.121-2.044,0.531-3.415
			c-0.766-0.666-1.35-1.158-2.32-2.461c-0.948-1.309-2.368-3.423-4.35-7.496c-0.52-1.087-1.06-2.302-1.547-3.595
			c-0.243-0.647-0.474-1.313-0.671-1.987l-0.14-0.506l-0.103-0.416c-0.046-0.201-0.088-0.406-0.117-0.614
			c-0.06-0.415-0.087-0.85,0.009-1.271c0.087-0.42,0.395-0.802,0.822-0.906c0.417-0.116,0.856-0.052,1.266,0.04
			c0.434,0.106,0.738,0.213,1.323,0.452c1.288,0.556,2.493,1.197,3.458,1.866c0.977,0.674,1.703,1.415,2.208,2.113
			C276.497,29.582,276.664,30.83,276.727,31.264z"/>
		<path style="fill:#231612;" d="M201.992,2.879c0.753-0.149,1.592-0.036,2.408,0.302c0.57,0.24,1.412,0.695,2.31,1.419
			c0.899,0.712,1.834,1.685,2.642,2.722c1.634,2.074,2.696,4.361,2.674,5.197c-0.004,1.153,0.343,2.233,1.175,2.758
			c0.413,0.264,0.959,0.392,1.7,0.404c0.729-0.007,1.697-0.045,2.876-0.364c1.951-0.479,2.595-2.067,2.387-3.377
			c-0.189-1.337-1.143-2.443-2.111-2.85c-0.635-0.284-2.528-2.521-4.96-4.568c-1.214-1.028-2.562-2.018-3.866-2.761
			c-1.297-0.751-2.559-1.23-3.429-1.422c-1.822-0.463-3.642-0.385-4.858-0.143c-0.225,0.038-0.751,0.164-1.458,0.507
			c-0.677,0.368-1.563,0.929-2.338,1.795c-0.795,0.842-1.682,2.034-2.005,3.649c-0.339,1.602,0.019,3.431,0.83,4.913
			c1.617,3.018,4.305,5.269,6.928,7.169c2.654,1.884,5.362,3.384,7.653,4.513c0.429,0.203,0.843,0.4,1.24,0.588
			c0.471,0.206,0.921,0.402,1.35,0.59c0.864,0.357,1.648,0.657,2.326,0.885c1.401,0.472,2.38,0.803,2.819,0.951
			c0.099-0.085,0.239-0.081,0.297-0.236c0.054-0.163,0.107-0.323,0.158-0.478c0.095-0.308,0.186-0.599,0.272-0.876
			c0.158-0.552,0.299-1.037,0.402-1.487c0.215-0.895,0.3-1.642,0.356-2.252c0.083-1.236,0.074-1.906,0.059-2.567
			c-0.048-1.152-0.481-1.468-1.121-1.847c-0.636-0.33-1.462-0.476-2.227-0.42c-0.766,0.056-1.472,0.319-1.867,0.818
			c-0.199,0.246-0.317,0.555-0.332,0.905c-0.004,0.088-0.001,0.18,0.01,0.275l0.038,0.223l0.162,0.152
			c0.215,0.169,0.412,0.379,0.574,0.767c0.077,0.195,0.146,0.439,0.178,0.758c0.014,0.16,0.02,0.338,0.01,0.537
			c-0.008,0.099-0.013,0.205-0.031,0.314l-0.025,0.169l-0.136-0.012c-0.113,0.034-0.408-0.003-0.877-0.129
			c-0.234-0.063-0.511-0.151-0.826-0.262c-0.159-0.06-0.325-0.123-0.499-0.188c-0.097-0.04-0.197-0.081-0.299-0.122
			c-0.173-0.076-0.349-0.153-0.53-0.232c-2.178-0.971-4.766-2.325-7.243-4.008c-2.448-1.666-4.874-3.758-6.056-5.939
			c-1.227-2.202-0.574-3.875,0.676-5.165C200.611,3.133,201.651,2.97,201.992,2.879z"/>
	</g>
</g>
</svg>
