<?xml version="1.0" encoding="UTF-8"?>
<svg id="_レイヤー_2" data-name="レイヤー 2" xmlns="http://www.w3.org/2000/svg" xmlns:xlink="http://www.w3.org/1999/xlink" viewBox="0 0 29.24 29.24">
  <defs>
    <style>
      .cls-1 {
        fill: url(#linear-gradient);
      }

      .cls-2 {
        fill: #fff;
      }
    </style>
    <linearGradient id="linear-gradient" x1="4.28" y1="4.28" x2="24.96" y2="24.96" gradientUnits="userSpaceOnUse">
      <stop offset="0" stop-color="#1677f1"/>
      <stop offset=".18" stop-color="#176ee9"/>
      <stop offset=".46" stop-color="#1d55d3"/>
      <stop offset=".82" stop-color="#252eb0"/>
      <stop offset="1" stop-color="#2b189c"/>
    </linearGradient>
  </defs>
  <g id="ELEMENTS">
    <g>
      <path class="cls-1" d="M29.24,14.62C29.24,6.55,22.7,0,14.62,0S0,6.55,0,14.62c0,7.3,5.35,13.35,12.34,14.44v-10.22h-3.71v-4.23h3.71v-3.22c0-3.66,2.18-5.69,5.52-5.69,1.6,0,3.27,.29,3.27,.29v3.6h-1.84c-1.82,0-2.38,1.13-2.38,2.28v2.74h4.06l-.65,4.23h-3.41v10.22c6.99-1.1,12.34-7.15,12.34-14.44Z"/>
      <path class="cls-2" d="M20.31,18.85l.65-4.23h-4.06v-2.74c0-1.16,.57-2.28,2.38-2.28h1.84v-3.6s-1.67-.29-3.27-.29c-3.34,0-5.52,2.02-5.52,5.69v3.22h-3.71v4.23h3.71v10.22c.74,.12,1.51,.18,2.28,.18s1.54-.06,2.28-.18v-10.22h3.41Z"/>
    </g>
  </g>
</svg>