<?xml version="1.0" encoding="UTF-8"?>
<svg id="_レイヤー_2" data-name="レイヤー 2" xmlns="http://www.w3.org/2000/svg" viewBox="0 0 85 98.86">
  <defs>
    <style>
      .cls-1 {
        fill: #0277bd;
      }

      .cls-2 {
        fill: #039be5;
      }

      .cls-3 {
        fill: #eee;
      }

      .cls-4 {
        fill: #e65100;
      }

      .cls-5 {
        fill: #fff;
      }

      .cls-6 {
        fill: #ff6d00;
      }
    </style>
  </defs>
  <g id="_レイヤー_1-2" data-name="レイヤー 1">
    <g>
      <g>
        <path class="cls-4" d="M42.5,0H0L3.75,42.5l17.5,5,17.5-5L42.5,0h0Z"/>
        <path class="cls-6" d="M21.25,3.75V43.63l14-4L38.38,3.75H21.25Z"/>
        <path class="cls-5" d="M21.25,25v-5h10.75l-.88,14.38-9.87,3.25v-5.25l5.13-1.75,.37-5.62s-5.5,0-5.5,0Zm11.13-10l.37-5h-11.5v5h11.13Z"/>
        <path class="cls-3" d="M21.25,32.37v5.25l-9.87-3.25-.5-6.88h5l.25,3.12,5.12,1.75ZM15.13,15h6.12v-5H9.87l.87,15h10.5v-5h-5.75l-.37-5Z"/>
      </g>
      <g>
        <path class="cls-1" d="M85,51.36H42.5l3.75,42.5,17.5,5,17.5-5,3.75-42.5h0Z"/>
        <path class="cls-2" d="M63.75,55.11v39.88l14-4,3.12-35.88h-17.13Z"/>
        <path class="cls-5" d="M75.12,61.36h-11.37v5h6.12l-.37,5h-5.75v5h5.5l-.37,5.62-5.13,1.75v5.25l9.87-3.25,.87-14.38h0l.62-10Z"/>
        <path class="cls-3" d="M63.75,61.36v5h-11.12l-.38-5h11.5Zm-5.75,10l.25,5h5.5v-5h-5.75Zm.5,7.5h-5l.37,6.88,9.87,3.25v-5.25l-5.13-1.75-.12-3.12Z"/>
      </g>
    </g>
  </g>
</svg>